# xmcd
# 
# Track frame offsets:
#     150
#     17405
#     42102
#     61565
#     85115
#     111900
#     138735
#     151917
#     171787
#     193540
#     213290
#     240252
#     262602
# 
# Disc length: 3707
# 
# Revision: 4
# Processed by: cddbd v1.5.2PL0 Copyright (c) Steve Scherf et al.
# Submitted via: fre:ac v1.0.31
# 
DISCID=950e790d
DTITLE=Michael Katon - Rub
DYEAR=1996
DGENRE=Bluesrock
TTITLE0=Bo Bo Bump
TTITLE1=Rockin' In The Promised Land
TTITLE2=Rub
TTITLE3=Been There Done That
TTITLE4=Wilde Ride
TTITLE5=If I Have A Heart Attack Baby
TTITLE6=Rock 'n' Roll Redneck Mamma Jamma Honkin' Fool
TTITLE7=Yeah...... But We Can Boogie
TTITLE8=Cruise-Nite Usa
TTITLE9=The Devil's Daughter
TTITLE10=Attack Of Badness
TTITLE11=The Man From Hell
TTITLE12=Back Water Moon
EXTD=
EXTT0=
EXTT1=
EXTT2=
EXTT3=
EXTT4=
EXTT5=
EXTT6=
EXTT7=
EXTT8=
EXTT9=
EXTT10=
EXTT11=
EXTT12=
PLAYORDER=
